<?xml version="1.0" standalone="no"?><!DOCTYPE svg PUBLIC "-//W3C//DTD SVG 1.1//EN" "http://www.w3.org/Graphics/SVG/1.1/DTD/svg11.dtd"><svg t="1763029038448" class="icon" viewBox="0 0 1105 1024" version="1.1" xmlns="http://www.w3.org/2000/svg" p-id="19989" xmlns:xlink="http://www.w3.org/1999/xlink" width="215.8203125" height="200"><path d="M308.9127 778.278712c57.150784 68.094551 129.501244 148.95683 127.677283 243.194825-133.757154 14.59169-277.242101-34.047276-357.496393-145.308908C35.926508 816.581897 20.726832 749.095333 17.686896 676.744873c-3.039935-80.254292-1.823961-159.900598 1.823962-240.15489 156.860662 18.847599 300.953596 109.437671 385.463798 243.194825 0 30.399353 0 60.798706 1.823961 90.590072 3.039935 43.167081 9.119806 85.726176 21.887534 126.461309-24.319483-44.991043-58.366758-86.334163-89.982085-123.421373-64.446629-77.822344-130.717219-154.428714-215.227421-211.579498-14.59169-9.727793-27.967405 13.375715-13.375715 23.103508 78.430331 52.286887 139.229037 122.2054 198.81177 193.339886zM1027.553408 25.590728c37.695198 177.532222 60.190719 361.144315 49.246952 542.932447-4.863897 83.294228-38.303185 168.412416-95.453969 229.81911-54.110849 58.366758-117.94949 108.221697-190.907938 141.052999-44.383056 20.063573-90.590072 31.615327-139.229037 38.911172-38.911172 6.079871-75.998383 15.199677-113.693581 26.751431-11.551754-72.35046 10.33578-144.092934 36.479224-210.971511 13.983702-34.655263 27.967405-67.486564 34.655263-104.573775 1.823961-9.119806 3.039935-18.847599 4.863896-27.967405 89.374098-34.047276 173.8843-108.221697 274.202166-94.237995 17.023638 2.431948 24.319483-23.711495 7.295844-26.143443-103.965788-14.59169-184.828067 51.6789-275.418139 88.766111 3.039935-12.767728 6.687858-26.143444 10.943767-38.911172 44.991043-132.54118 149.564817-232.251058 255.962553-317.977234 13.375715-10.943767-5.471884-29.791366-18.847599-18.847599-110.045658 89.374098-215.835407 192.731899-262.650411 329.528988-6.687858 19.455586-10.943767 39.519159-14.591689 59.582732a13.928431 13.928431 0 0 0-2.431949 12.767729c-1.823961 12.159741-4.255909 23.711495-6.687857 35.871236-7.295845 37.695198-24.319483 72.35046-38.303185 108.221697-24.319483 63.230655-40.735133 128.893257-33.439289 196.379822-48.638965-61.406693-68.702538-139.229037-74.782408-217.051382a1137.37798 1137.37798 0 0 1-2.431949-101.533839 6.715493 6.715493 0 0 0 0-4.863897c0-10.33578 0-20.063573 0.607987-30.399353 0.607987-45.59903 1.823961-91.198059 14.59169-134.973128 23.103508-78.430331 74.782409-146.524882 131.933193-204.283653 57.150784-58.366758 122.2054-109.437671 193.947873-148.95683 42.559094-23.103508 88.158124-40.735133 131.933192-62.622668 41.34312-20.063573 82.078254-43.167081 122.2054-66.27059z" fill="#39a6df" p-id="19990"></path></svg>